<?xml version="1.0" encoding="utf-8"?>
<!-- Generator: Adobe Illustrator 26.0.0, SVG Export Plug-In . SVG Version: 6.00 Build 0)  -->
<svg version="1.1" id="Camada_1" xmlns="http://www.w3.org/2000/svg" xmlns:xlink="http://www.w3.org/1999/xlink" x="0px" y="0px"
	 viewBox="0 0 448 512" style="enable-background:new 0 0 448 512;" xml:space="preserve">
<style type="text/css">
	.st0{fill:#38999F;}
</style>
<path class="st0" d="M448,80v48c0,44.2-100.3,80-224,80S0,172.2,0,128V80C0,35.8,100.3,0,224,0S448,35.8,448,80z M393.2,214.7
	c20.8-7.4,39.9-16.9,54.8-28.6V288c0,44.2-100.3,80-224,80S0,332.2,0,288V186.1c14.9,11.8,34,21.2,54.8,28.6
	C99.7,230.7,159.5,240,224,240S348.3,230.7,393.2,214.7z M0,346.1c14.9,11.8,34,21.2,54.8,28.6C99.7,390.7,159.5,400,224,400
	s124.3-9.3,169.2-25.3c20.8-7.4,39.9-16.9,54.8-28.6V432c0,44.2-100.3,80-224,80S0,476.2,0,432V346.1z"/>
</svg>
