<?xml version="1.0" encoding="utf-8"?>
<!-- Generator: Adobe Illustrator 26.0.0, SVG Export Plug-In . SVG Version: 6.00 Build 0)  -->
<svg version="1.1" id="Camada_1" xmlns="http://www.w3.org/2000/svg" xmlns:xlink="http://www.w3.org/1999/xlink" x="0px" y="0px"
	 viewBox="0 0 752 752" style="enable-background:new 0 0 752 752;" xml:space="preserve">
<style type="text/css">
	.st0{fill:#373E51;}
</style>
<g>
	<path class="st0" d="M52.4,246.9v299.3c0,14,5.5,27.4,15.4,37.4c9.9,9.9,23.3,15.5,37.3,15.5h238.5c-1.4-9.4-2-19-1.9-28.5
		c0-51.1,20.3-100.2,56.4-136.3c36.1-36.2,85.2-56.5,136.3-56.5h11.5V246.9L52.4,246.9z M193.1,515.4c0,3.5-1.3,6.9-3.8,9.4
		c-2.5,2.5-5.9,3.9-9.4,3.9h-44c-7.3-0.1-13.2-6-13.2-13.3v-44c0.1-7.3,5.9-13.1,13.2-13.2h44c7.3,0,13.2,5.9,13.2,13.2V515.4z
		 M193.1,374.5c0.2,3.6-1.1,7.1-3.6,9.8c-2.5,2.6-6,4.1-9.6,4.1h-44c-7.3-0.1-13.2-6-13.2-13.3v-44c0.1-7.3,5.9-13.1,13.2-13.2h44
		c7.3,0,13.2,5.9,13.2,13.2V374.5z M334,515.4c0,3.5-1.3,6.9-3.8,9.4c-2.5,2.5-5.8,3.9-9.4,3.9h-44c-7.3-0.1-13.2-6-13.2-13.3v-44
		c0.1-7.3,5.9-13.1,13.2-13.2h44c7.3,0,13.2,5.9,13.2,13.2V515.4z M334,374.5c0.2,3.6-1.1,7.1-3.6,9.8s-6,4.1-9.6,4.1h-44
		c-7.3-0.1-13.2-6-13.2-13.3v-44c0.1-7.3,5.9-13.1,13.2-13.2h44c7.3,0,13.2,5.9,13.2,13.2L334,374.5z M474.9,374.5
		c0.2,3.6-1.2,7.1-3.6,9.7c-2.5,2.6-5.9,4.1-9.5,4.1h-44c-7.3-0.1-13.2-6-13.2-13.3v-44c0.1-7.3,5.9-13.1,13.2-13.2h44
		c7.3,0.1,13.1,5.9,13.2,13.2L474.9,374.5z"/>
	<path class="st0" d="M686.7,506.2c-16.8-39.7-48.4-71.3-88.1-88c-16.9-7.2-34.9-11.5-53.2-12.6H534c-43.9-0.1-86,17.3-116.9,48.4
		c-2.1,2.1-4,4-5.8,6.2c-1.8,2.2-4.2,4.8-6.3,7.3v0c-9.4,11.9-17.1,25.1-22.9,39.1c-8.7,20.3-13.1,42.2-13.1,64.3
		c0,22.1,4.5,44,13.1,64.4c17.1,40.4,49.5,72.4,90.1,88.9c40.6,16.5,86.2,16.2,126.6-0.9c19.7-8.4,37.5-20.5,52.5-35.8
		c23.3-23.2,39.2-52.9,45.5-85.2C703,570,699.5,536.6,686.7,506.2L686.7,506.2z M534.3,712.6c-32.7,0-64.4-11.3-89.8-32
		c-25.4-20.7-42.8-49.5-49.4-81.5c-2-9.4-3-18.9-3-28.5c0.1-19.8,4.3-39.3,12.4-57.3c11.1-25.2,29.3-46.6,52.3-61.6
		c23-15,50-23.1,77.5-23.1h11.5c8.7,0.8,17.3,2.3,25.8,4.5c44.8,12,81,45.1,96.8,88.7c15.9,43.6,9.4,92.2-17.2,130.2
		c-26.6,38-70.1,60.5-116.5,60.5L534.3,712.6z"/>
	<path class="st0" d="M603.6,623.6L556,575.9c0.5-1.8,0.7-3.7,0.7-5.6c-0.1-7.5-3.9-14.5-10.2-18.7V447.5c0-6.3-5.1-11.5-11.5-11.5
		c-6.3,0-11.5,5.1-11.5,11.5v103.9c-8.5,5.1-12.5,15.3-9.8,24.9s11.4,16.2,21.3,16.2c1.5,0.2,3,0.2,4.5,0l48.2,48.2h0
		c2.2,2.2,5.1,3.4,8.2,3.4s6-1.2,8.2-3.4c2.3-2.2,3.6-5.4,3.5-8.6C607.5,628.8,606,625.7,603.6,623.6L603.6,623.6z"/>
	<path class="st0" d="M545.5,152.2v39.7c-0.1,7.3-6,13.1-13.3,13.1H65.5c-7.3,0-13.2-5.9-13.3-13.2v-39.6c0-14,5.6-27.4,15.5-37.3
		c9.9-9.9,23.3-15.4,37.3-15.4h34.4v9.6c0,8.2,3.3,16.1,9.1,21.9c5.8,5.8,13.7,9.1,21.9,9.1h43.8c8.2,0,16.1-3.3,21.9-9.1
		c5.8-5.8,9.1-13.7,9.1-21.9v-9.6h105.2v9.6c0,8.2,3.3,16.1,9.1,21.9c5.8,5.8,13.7,9.1,21.9,9.1h43.8c8.2,0,16.1-3.2,22-9
		c5.8-5.8,9.1-13.7,9.1-21.9v-9.6h36c14.1-0.1,27.6,5.4,37.6,15.3C539.8,124.7,545.4,138.2,545.5,152.2L545.5,152.2z"/>
	<path class="st0" d="M170.9,17.8h43.8c7.2,0,13,7.2,13,13v78.3c0,7.2-5.8,13-13,13h-43.8c-7.2,0-13-7.2-13-13V30.8
		C157.9,23.6,163.7,17.8,170.9,17.8L170.9,17.8z"/>
	<path class="st0" d="M381.8,17.8h43.8c7.2,0,13,7.2,13,13v78.3c0,7.2-5.8,13-13,13h-43.8c-7.2,0-13-7.2-13-13V30.8
		C368.9,23.6,374.7,17.8,381.8,17.8z"/>
</g>
</svg>
