<?xml version="1.0" encoding="utf-8"?>
<!-- Generator: Adobe Illustrator 26.0.0, SVG Export Plug-In . SVG Version: 6.00 Build 0)  -->
<svg version="1.1" id="Camada_1" xmlns="http://www.w3.org/2000/svg" xmlns:xlink="http://www.w3.org/1999/xlink" x="0px" y="0px"
	 viewBox="0 0 640 512" style="enable-background:new 0 0 640 512;" xml:space="preserve">
<style type="text/css">
	.st0{fill:#383F51;}
</style>
<path class="st0" d="M160,64c0-35.3,28.7-64,64-64h352c35.3,0,64,28.7,64,64v288c0,35.3-28.7,64-64,64H336.8
	c-11.8-25.5-29.9-47.5-52.4-64H384v-32c0-17.7,14.3-32,32-32h64c17.7,0,32,14.3,32,32v32h64V64H224v49.1
	C205.2,102.2,183.3,96,160,96V64z M160,320c-53,0-96-43-96-96s43-96,96-96s96,43,96,96S213,320,160,320z M133.3,352h53.3
	c73.7,0,133.4,59.7,133.4,133.3c0,14.7-11.9,26.7-26.7,26.7H26.7C11.9,512,0,500.1,0,485.3C0,411.7,59.7,352,133.3,352z"/>
</svg>
