<?xml version="1.0" encoding="utf-8"?>
<!-- Generator: Adobe Illustrator 26.0.0, SVG Export Plug-In . SVG Version: 6.00 Build 0)  -->
<svg version="1.1" id="Camada_1" xmlns="http://www.w3.org/2000/svg" xmlns:xlink="http://www.w3.org/1999/xlink" x="0px" y="0px"
	 viewBox="0 0 640 512" style="enable-background:new 0 0 640 512;" xml:space="preserve">
<style type="text/css">
	.st0{fill:#383F51;}
</style>
<path class="st0" d="M208,352c114.9,0,208-78.8,208-176S322.9,0,208,0S0,78.8,0,176c0,38.6,14.7,74.3,39.6,103.4
	c-3.5,9.4-8.7,17.7-14.2,24.7c-4.8,6.2-9.7,11-13.3,14.3c-1.8,1.6-3.3,2.9-4.3,3.7c-0.5,0.4-0.9,0.7-1.1,0.8l-0.2,0.2l0,0l0,0
	c-5.5,4.1-7.9,11.3-5.7,17.8S9.1,352,16,352c21.8,0,43.8-5.6,62.1-12.5c9.2-3.5,17.8-7.4,25.3-11.4C134.1,343.3,169.8,352,208,352z
	 M448,176c0,112.3-99.1,196.9-216.5,207c24.3,74.4,104.9,129,200.5,129c38.2,0,73.9-8.7,104.7-23.9c7.5,4,16,7.9,25.2,11.4
	c18.3,6.9,40.3,12.5,62.1,12.5c6.9,0,13.1-4.5,15.2-11.1c2.1-6.6-0.2-13.8-5.8-17.9l0,0l0,0l-0.2-0.2c-0.2-0.2-0.6-0.4-1.1-0.8
	c-1-0.8-2.5-2-4.3-3.7c-3.6-3.3-8.5-8.1-13.3-14.3c-5.5-7-10.7-15.4-14.2-24.7c24.9-29,39.6-64.7,39.6-103.4
	c0-92.8-84.9-168.9-192.6-175.5c0.4,5.1,0.6,10.3,0.6,15.5L448,176z"/>
</svg>
