<?xml version="1.0" encoding="utf-8"?>
<!-- Generator: Adobe Illustrator 26.0.0, SVG Export Plug-In . SVG Version: 6.00 Build 0)  -->
<svg version="1.1" id="Camada_1" xmlns="http://www.w3.org/2000/svg" xmlns:xlink="http://www.w3.org/1999/xlink" x="0px" y="0px"
	 viewBox="0 0 576 512" style="enable-background:new 0 0 576 512;" xml:space="preserve">
<style type="text/css">
	.st0{fill:#FFFFFF;}
</style>
<path class="st0" d="M0,64C0,28.6,28.6,0,64,0h160v128c0,17.7,14.3,32,32,32h128v139.6l-94.7,94.7c-8.2,8.2-14,18.5-16.8,29.8
	l-15.1,60.1c-2.3,9.4-1.7,19,1.4,27.8H64c-35.3,0-64-28.7-64-64V64z M256,128V0l128,128H256z M564.1,250.1
	c15.7,15.6,15.7,40.9,0,56.6l-29.4,29.4l-70.9-71l29.4-29.4c15.6-15.6,40.9-15.6,56.6,0L564.1,250.1z M311.9,416.1l129.2-128.3
	l71,70.9L382.9,487.9c-4.1,4.1-9.3,7-14.9,8.4l-60.1,15.1c-5.5,1.3-11.2-0.3-15.2-4.2c-4-4-5.6-9.8-4.2-16.1l15-59.3
	C304.9,426.2,307.8,421.1,311.9,416.1L311.9,416.1z"/>
</svg>
