<?xml version="1.0" encoding="utf-8"?>
<!-- Generator: Adobe Illustrator 26.0.0, SVG Export Plug-In . SVG Version: 6.00 Build 0)  -->
<svg version="1.1" id="Camada_1" xmlns="http://www.w3.org/2000/svg" xmlns:xlink="http://www.w3.org/1999/xlink" x="0px" y="0px"
	 viewBox="0 0 384 512" style="enable-background:new 0 0 384 512;" xml:space="preserve">
<style type="text/css">
	.st0{fill:#383F51;}
</style>
<path class="st0" d="M88,304h-8v-48h8c13.3,0,24,10.7,24,24S101.3,304,88,304z M192,256h8c8.8,0,16,7.2,16,16v64c0,8.8-7.2,16-16,16
	h-8V256z M224,0v128c0,17.7,14.3,32,32,32h128v288c0,35.3-28.7,64-64,64H64c-35.3,0-64-28.7-64-64V64C0,28.6,28.6,0,64,0H224z
	 M64,224c-8.8,0-16,7.2-16,16v128c0,8.8,7.2,16,16,16s16-7.2,16-16v-32h8c30.9,0,56-25.1,56-56s-25.1-56-56-56H64z M160,368
	c0,8.8,7.2,16,16,16h24c26.5,0,48-21.5,48-48v-64c0-26.5-21.5-48-48-48h-24c-8.8,0-16,7.2-16,16V368z M288,224c-8.8,0-16,7.2-16,16
	v128c0,8.8,7.2,16,16,16s16-7.2,16-16v-48h32c8.8,0,16-7.2,16-16s-7.2-16-16-16h-32v-32h32c8.8,0,16-7.2,16-16s-7.2-16-16-16H288z
	 M256,0l128,128H256V0z"/>
</svg>
