<?xml version="1.0" encoding="utf-8"?>
<!-- Generator: Adobe Illustrator 26.0.0, SVG Export Plug-In . SVG Version: 6.00 Build 0)  -->
<svg version="1.1" id="Camada_1" xmlns="http://www.w3.org/2000/svg" xmlns:xlink="http://www.w3.org/1999/xlink" x="0px" y="0px"
	 viewBox="0 0 384 512" style="enable-background:new 0 0 384 512;" xml:space="preserve">
<style type="text/css">
	.st0{fill:#383F51;}
</style>
<path class="st0" d="M256,0v128h128L256,0z M224,128V0H48C21.5,0,0,21.5,0,48v416c0,26.5,21.5,48,48,48h288c26.5,0,48-21.5,48-48
	V160H256.9C238.3,160,224,145.7,224,128z M272,416H112c-8.8,0-16-7.2-16-16s7.2-16,16-16h160c8.8,0,16,7.2,16,16
	C288,408.8,280.8,416,272,416z M272,352H112c-8.8,0-16-7.2-16-16s7.2-16,16-16h160c8.8,0,16,7.2,16,16C288,344.8,280.8,352,272,352z
	 M288,272c0,8.8-7.2,16-16,16H112c-8.8,0-16-7.2-16-16s7.2-16,16-16h160C280.8,256,288,263.2,288,272z"/>
</svg>
