<?xml version="1.0" encoding="utf-8"?>
<!-- Generator: Adobe Illustrator 26.0.0, SVG Export Plug-In . SVG Version: 6.00 Build 0)  -->
<svg version="1.1" id="Camada_1" xmlns="http://www.w3.org/2000/svg" xmlns:xlink="http://www.w3.org/1999/xlink" x="0px" y="0px"
	 viewBox="0 0 448 512" style="enable-background:new 0 0 448 512;" xml:space="preserve">
<style type="text/css">
	.st0{fill:#383F51;}
</style>
<path class="st0" d="M216.1,408.1c-8.5,10.2-23.7,10.2-33.1,0l-64-64c-9.3-8.5-9.3-23.7,0-33.1c9.4-9.3,24.6-9.3,33.1,0l47.9,47.1
	l95-95.1c9.4-9.3,24.6-9.3,33.1,0c10.2,9.4,10.2,24.6,0,33.1L216.1,408.1z M128,0c13.3,0,24,10.8,24,24v40h144V24
	c0-13.2,10.7-24,24-24s24,10.8,24,24v40h40c35.3,0,64,28.7,64,64v320c0,35.3-28.7,64-64,64H64c-35.3,0-64-28.7-64-64V128
	c0-35.3,28.6-64,64-64h40V24C104,10.8,114.7,0,128,0z M400,192H48v256c0,8.8,7.2,16,16,16h320c8.8,0,16-7.2,16-16V192z"/>
</svg>
