<?xml version="1.0" encoding="utf-8"?>
<!-- Generator: Adobe Illustrator 26.0.0, SVG Export Plug-In . SVG Version: 6.00 Build 0)  -->
<svg version="1.1" id="Camada_1" xmlns="http://www.w3.org/2000/svg" xmlns:xlink="http://www.w3.org/1999/xlink" x="0px" y="0px"
	 viewBox="0 0 512 512" style="enable-background:new 0 0 512 512;" xml:space="preserve">
<style type="text/css">
	.st0{fill:#383F51;}
</style>
<path class="st0" d="M96,96c0-35.3,28.7-64,64-64h288c35.3,0,64,28.7,64,64v320c0,35.3-28.7,64-64,64H80c-44.2,0-80-35.8-80-80V128
	c0-17.7,14.3-32,32-32s32,14.3,32,32v272c0,8.8,7.2,16,16,16s16-7.2,16-16V96z M160,120v80c0,13.3,10.7,24,24,24h240
	c13.3,0,24-10.7,24-24v-80c0-13.3-10.7-24-24-24H184C170.7,96,160,106.7,160,120z M160,304c0,8.8,7.2,16,16,16h96
	c8.8,0,16-7.2,16-16s-7.2-16-16-16h-96C167.2,288,160,295.2,160,304z M320,304c0,8.8,7.2,16,16,16h96c8.8,0,16-7.2,16-16
	s-7.2-16-16-16h-96C327.2,288,320,295.2,320,304z M160,400c0,8.8,7.2,16,16,16h96c8.8,0,16-7.2,16-16s-7.2-16-16-16h-96
	C167.2,384,160,391.2,160,400z M320,400c0,8.8,7.2,16,16,16h96c8.8,0,16-7.2,16-16s-7.2-16-16-16h-96C327.2,384,320,391.2,320,400z"
	/>
<path class="st0" d="M350,159c0,11.4-3.7,21.9-9.9,30.4l31.4,31.4c3.1,3.1,3.1,8.1,0,11.2c-3.1,3.1-8.1,3.1-11.2,0l-31.4-31.4
	c-8.5,6.2-19,9.9-30.4,9.9c-28.5,0-51.5-23.1-51.5-51.5s23.1-51.5,51.5-51.5C326.9,107.5,350,130.5,350,159z M298.4,194.7
	c19.7,0,35.7-16,35.7-35.7s-16-35.7-35.7-35.7s-35.7,16-35.7,35.7S278.7,194.7,298.4,194.7z"/>
</svg>
