<?xml version="1.0" encoding="utf-8"?>
<!-- Generator: Adobe Illustrator 26.0.0, SVG Export Plug-In . SVG Version: 6.00 Build 0)  -->
<svg version="1.1" id="Camada_1" xmlns="http://www.w3.org/2000/svg" xmlns:xlink="http://www.w3.org/1999/xlink" x="0px" y="0px"
	 viewBox="0 0 512 512" style="enable-background:new 0 0 512 512;" xml:space="preserve">
<style type="text/css">
	.st0{fill:#383F51;}
</style>
<path class="st0" d="M345.3,480.9c86.4,0,156.5-70.1,156.5-156.5s-70.1-156.5-156.5-156.5s-156.5,70.1-156.5,156.5
	S258.9,480.9,345.3,480.9z M414.4,295.7l-78.2,78.2c-5.7,5.7-15,5.7-20.7,0l-39.1-39.1c-5.7-5.7-5.7-15,0-20.7
	c5.7-5.7,15-5.7,20.7,0l28.7,28.7l67.9-67.9c5.7-5.7,15-5.7,20.7,0C420,280.6,420.1,289.9,414.4,295.7L414.4,295.7z"/>
<path class="st0" d="M320.4,161.6C315,79.4,251.5,25.2,167.9,25.2C80.8,25.2,10.2,95.8,10.2,183s70.6,157.8,157.8,157.8
	c8,0,5.5,0.9,13.2-0.2C170.4,294.2,200.7,183.1,320.4,161.6z M136.7,222.1c-5,5-13.1,5-18.1,0c-5-5-5-13.1,0-18.1l25.1-25.1
	l-25.1-25.1c-5-5-5-13.1,0-18.1c5-5,13.1-5,18.1,0l25.1,25.1l25.1-25.1c5-5,13.1-5,18.1,0c5,5,5,13.1,0,18.1l-25.1,25.1L205,204
	c5,5,5,13.1,0,18.1c-5,5-13.1,5-18.1,0L161.8,197L136.7,222.1z M221.8,267.7"/>
<path class="st0" d="M229.6,36.8c0,0,90.2-12.5,123.4,63.4c-26.8-22.6-62-35.4-81.5-27C203.3,73.2,229.6,36.8,229.6,36.8z"/>
<path class="st0" d="M275.3,464c0,0-162,10.4-208.8-139.6c43.8,47.3,104.3,76.9,140.2,63.9C327.8,398.4,275.3,464,275.3,464z"/>
</svg>
